<?xml version="1.0" encoding="utf-8"?>
<svg viewBox="0 0 512 512" xmlns="http://www.w3.org/2000/svg">
  <g fill="#9966CC" opacity="0.6">
    <path d="M492.977,219.06c-11.854-6.513-25.73-6.081-37.119,1.151c-32.916,20.896-79.957,30.239-136.975,27.373
      c12.867-20.341,19.778-43.956,19.778-68.435c0-70.739-57.551-128.291-128.29-128.291C143.111,50.86,87.847,102.229,82.513,168.579
      c-10.914,10.909-37.836,34.276-71.473,38.288c-4.67,0.557-8.636,3.684-10.264,8.096c-1.629,4.413-0.65,9.366,2.539,12.825
      c1.592,1.727,37.457,39.74,105.634,39.738c2.705,0,5.468-0.068,8.276-0.192c0.526,0.556,1.044,1.121,1.58,1.667
      C99.389,289.846,88.36,317.1,88.141,345.661c-0.224,30.788,11.594,59.774,33.278,81.615c21.682,21.84,50.568,33.867,81.338,33.867
      h155.517c50.332,0,91.082-19.931,117.84-57.636c23.477-33.082,35.886-79.3,35.886-133.661v-18.648
      C512.001,237.823,504.712,225.509,492.977,219.06z"/>
    <circle cx="179" cy="150" r="8" fill="#FFFFFF"/>
  </g>
</svg>
